# File produced by Open Asset Import Library (http://www.assimp.sf.net)
# (assimp v3.1.197435470)

mtllib Sith Holocron SP.mtl

# 122 vertex positions
v  0.183263 -0.097156 -0.201986
v  -0.183263 -0.097156 -0.201986
v  0 0.19548 -0.017491
v  -0.016841 0.196354 0
v  -0.202414 -0.097099 -0.186459
v  -0.202414 -0.097099 0.186459
v  0.202414 -0.097099 -0.186459
v  0.016841 0.196354 0
v  0.202414 -0.097099 0.186459
v  -0.188201 -0.110307 -0.188071
v  -0.188511 -0.114495 -0.188349
v  0 -0.114509 -0.188663
v  0 -0.110128 -0.188333
v  -0.188511 -0.114495 0.188349
v  -0.188201 -0.110307 0.188071
v  0 -0.110128 0.188333
v  0 -0.114509 0.188663
v  0.188511 -0.114495 -0.188349
v  0.188201 -0.110307 -0.188071
v  -0.188688 -0.114534 0
v  -0.188343 -0.110131 0
v  0.188688 -0.114534 0
v  0.188343 -0.110131 0
v  -0.219107 -0.113805 0
v  -0.219621 -0.114432 -0.219357
v  -0.219621 -0.114432 0.219357
v  0.219621 -0.114432 -0.219357
v  0.219107 -0.113805 0
v  0 -0.114404 -0.219898
v  0 -0.114404 0.219898
v  -0.183735 -0.097063 -0.208432
v  0 -0.097568 -0.209303
v  -0.183735 -0.097063 0.208432
v  0 -0.097568 0.209303
v  0.183735 -0.097063 -0.208432
v  0 -0.097263 -0.202214
v  0 -0.097263 0.202214
v  -0.183263 -0.097156 0.201986
v  0 0.195363 -0.02388
v  0 0.19548 0.017491
v  0 0.195363 0.02388
v  -0.023384 0.196537 0
v  -0.208757 -0.09698 -0.186534
v  -0.208757 -0.09698 0.186534
v  0.208757 -0.09698 -0.186534
v  0.023384 0.196537 0
v  -0.208837 -0.097545 0
v  -0.202184 -0.097434 0
v  0.202184 -0.097434 0
v  0.208837 -0.097545 0
v  0.219621 -0.114432 0.219357
v  0 0.232716 0
v  0.183735 -0.097063 0.208432
v  0.208757 -0.09698 0.186534
v  0.183263 -0.097156 0.201986
v  0.188511 -0.114495 0.188349
v  0.188201 -0.110307 0.188071
v  0 -0.112346 0
v  0.101258 -0.085676 0.1949
v  0.101282 -0.084554 0.196067
v  0 -0.083541 0.196166
v  0 -0.084863 0.194462
v  0.124693 -0.040854 0.166475
v  0.124293 -0.040294 0.167979
v  0.034491 0.11517 0.067874
v  0.034154 0.115914 0.069975
v  0 0.115258 0.067696
v  0 0.116329 0.069959
v  -0.034154 0.115914 0.069975
v  -0.124293 -0.040294 0.167979
v  -0.101282 -0.084554 0.196067
v  0.193796 -0.084055 0.105673
v  0.193813 -0.084302 0
v  0.195277 -0.082631 0
v  0.195169 -0.082535 0.105585
v  0.165552 -0.038986 0.12856
v  0.167001 -0.038013 0.128167
v  0.067461 0.116102 0.035677
v  0.068338 0.116453 0.03571
v  0.068543 0.116527 0
v  0.067271 0.116232 0
v  0.195169 -0.082535 -0.105585
v  0.167001 -0.038013 -0.128167
v  0.068338 0.116453 -0.03571
v  -0.068543 0.116527 0
v  -0.068338 0.116453 -0.03571
v  -0.167001 -0.038013 -0.128167
v  -0.195169 -0.082535 -0.105585
v  -0.195277 -0.082631 0
v  -0.195169 -0.082535 0.105585
v  -0.167001 -0.038013 0.128167
v  -0.068338 0.116453 0.03571
v  -0.067271 0.116232 0
v  -0.067461 0.116102 -0.035677
v  -0.067461 0.116102 0.035677
v  0.067461 0.116102 -0.035677
v  -0.165552 -0.038986 -0.12856
v  -0.165552 -0.038986 0.12856
v  0.165552 -0.038986 -0.12856
v  -0.193796 -0.084055 -0.105673
v  -0.193796 -0.084055 0.105673
v  0.193796 -0.084055 -0.105673
v  -0.193813 -0.084302 0
v  0 -0.083541 -0.196166
v  -0.101282 -0.084554 -0.196067
v  -0.124293 -0.040294 -0.167979
v  -0.034154 0.115914 -0.069975
v  0 0.116329 -0.069959
v  0.034154 0.115914 -0.069975
v  0.124293 -0.040294 -0.167979
v  0.101282 -0.084554 -0.196067
v  -0.034491 0.11517 -0.067874
v  0 0.115258 -0.067696
v  -0.034491 0.11517 0.067874
v  0.034491 0.11517 -0.067874
v  -0.124693 -0.040854 -0.166475
v  -0.124693 -0.040854 0.166475
v  0.124693 -0.040854 -0.166475
v  -0.101258 -0.085676 -0.1949
v  -0.101258 -0.085676 0.1949
v  0.101258 -0.085676 -0.1949
v  0 -0.084863 -0.194462

# 228 UV coordinates
vt 0.442702 0.422349 0
vt 0.672819 0.300444 0
vt 0.672819 0.578589 0
vt 0.176525 0.253024 0
vt 0.456532 0.253024 0
vt 0.331177 0.486449 0
vt 0.540073 0.588911 0
vt 0.820081 0.588911 0
vt 0.665429 0.822336 0
vt 0.971998 0.958526 0
vt 0.972218 0.961508 0
vt 0.838283 0.961508 0
vt 0.838283 0.958387 0
vt 0.019879 0.01 0
vt 0.022862 0.01022 0
vt 0.023 0.143935 0
vt 0.019879 0.143935 0
vt 0.704348 0.961456 0
vt 0.704568 0.958473 0
vt 0.904226 0.236683 0
vt 0.904152 0.370504 0
vt 0.901168 0.370305 0
vt 0.901089 0.236682 0
vt 0.904226 0.102863 0
vt 0.901242 0.10306 0
vt 0.911004 0.950484 0
vt 0.910968 0.816664 0
vt 0.914105 0.816664 0
vt 0.913988 0.950286 0
vt 0.614834 0.128908 0
vt 0.770685 0.128548 0
vt 0.748654 0.150651 0
vt 0.614834 0.150526 0
vt 0.458982 0.128548 0
vt 0.481013 0.150651 0
vt 0.879355 0.407137 0
vt 0.878996 0.562989 0
vt 0.857377 0.562989 0
vt 0.857252 0.429168 0
vt 0.871452 0.117063 0
vt 0.893482 0.09496 0
vt 0.893867 0.250998 0
vt 0.871675 0.250998 0
vt 0.168165 0.989615 0
vt 0.190269 0.967585 0
vt 0.324204 0.967808 0
vt 0.324204 0.99 0
vt 0.893482 0.407036 0
vt 0.871452 0.384933 0
vt 0.01 0.714804 0
vt 0.03488 0.730412 0
vt 0.095891 0.845824 0
vt 0.083428 0.852489 0
vt 0.508709 0.511657 0
vt 0.533589 0.496048 0
vt 0.460165 0.633735 0
vt 0.447702 0.627069 0
vt 0.158012 0.960641 0
vt 0.157181 0.99 0
vt 0.812038 0.970242 0
vt 0.942581 0.970868 0
vt 0.942245 0.975449 0
vt 0.812038 0.975283 0
vt 0.1994 0.941951 0
vt 0.329942 0.941325 0
vt 0.329942 0.946366 0
vt 0.199735 0.946532 0
vt 0.681497 0.970868 0
vt 0.681832 0.975449 0
vt 0.196105 0.95843 0
vt 0.193903 0.95446 0
vt 0.472049 0.954435 0
vt 0.474314 0.95843 0
vt 0.45866 0.108809 0
vt 0.460862 0.104839 0
vt 0.739073 0.104839 0
vt 0.736806 0.108833 0
vt 0.150434 0.102881 0
vt 0.152636 0.098911 0
vt 0.430847 0.098911 0
vt 0.42858 0.102906 0
vt 0.898911 0.948392 0
vt 0.899068 0.668391 0
vt 0.903064 0.670476 0
vt 0.903064 0.950484 0
vt 0.904884 0.377948 0
vt 0.90504 0.657948 0
vt 0.900887 0.66004 0
vt 0.900887 0.380033 0
vt 0.719315 0.097138 0
vt 0.439314 0.097138 0
vt 0.437224 0.092984 0
vt 0.717232 0.09314 0
vt 0.916675 0.675795 0
vt 0.912168 0.675847 0
vt 0.912168 0.543316 0
vt 0.916895 0.543318 0
vt 0.912289 0.410784 0
vt 0.916797 0.41084 0
vt 0.296796 0.087117 0
vt 0.296743 0.091624 0
vt 0.164265 0.091784 0
vt 0.164265 0.087057 0
vt 0.555459 0.966133 0
vt 0.569153 0.99 0
vt 0.431937 0.916088 0
vt 0.438374 0.904035 0
vt 0.386407 0.771243 0
vt 0.202723 0.496048 0
vt 0.230499 0.510904 0
vt 0.385577 0.741884 0
vt 0.294192 0.843168 0
vt 0.321644 0.841272 0
vt 0.284962 0.431469 0
vt 0.25751 0.433364 0
vt 0.140779 0.370602 0
vt 0.147216 0.358549 0
vt 0.554736 0.686131 0
vt 0.569153 0.659133 0
vt 0.024417 0.588506 0
vt 0.01 0.615505 0
vt 0.01 0.284637 0
vt 0.023694 0.308504 0
vt 0.340867 0.714804 0
vt 0.313091 0.729659 0
vt 0.031788 0.091624 0
vt 0.031734 0.087117 0
vt 0.738956 0.120847 0
vt 0.458956 0.12069 0
vt 0.46104 0.116694 0
vt 0.741048 0.116694 0
vt 0.887215 0.672274 0
vt 0.891185 0.670073 0
vt 0.89121 0.948218 0
vt 0.887215 0.950484 0
vt 0.460484 0.941951 0
vt 0.460148 0.946532 0
vt 0.458138 0.967584 0
vt 0.480242 0.989615 0
vt 0.879355 0.71884 0
vt 0.857252 0.696809 0
vt 0.911005 0.682844 0
vt 0.913989 0.683041 0
vt 0.022915 0.27765 0
vt 0.019933 0.27787 0
vt 0.585403 0.158185 0
vt 0.863548 0.158185 0
vt 0.741643 0.388303 0
vt 0.03193 0.284005 0
vt 0.031734 0.150289 0
vt 0.165552 0.150282 0
vt 0.165552 0.284107 0
vt 0.741586 0.727218 0
vt 0.875302 0.727413 0
vt 0.875403 0.861036 0
vt 0.741579 0.861036 0
vt 0.30834 0.244584 0
vt 0.174624 0.244389 0
vt 0.174522 0.110766 0
vt 0.308347 0.110766 0
vt 0.316882 0.110962 0
vt 0.450598 0.110766 0
vt 0.450605 0.244584 0
vt 0.31678 0.244584 0
vt 0.577077 0.828156 0
vt 0.578191 0.828409 0
vt 0.578614 0.90057 0
vt 0.577077 0.900572 0
vt 0.615613 0.811021 0
vt 0.615087 0.812067 0
vt 0.747736 0.874862 0
vt 0.746808 0.876148 0
vt 0.748952 0.900297 0
vt 0.747168 0.900292 0
vt 0.746886 0.924446 0
vt 0.615376 0.988956 0
vt 0.578429 0.972731 0
vt 0.815551 0.579816 0
vt 0.740611 0.564699 0
vt 0.74138 0.563275 0
vt 0.814984 0.581008 0
vt 0.849452 0.557344 0
vt 0.848286 0.556798 0
vt 0.849452 0.413788 0
vt 0.849718 0.414163 0
vt 0.822256 0.405634 0
vt 0.822602 0.404959 0
vt 0.681147 0.517653 0
vt 0.680544 0.477542 0
vt 0.798176 0.407463 0
vt 0.251783 0.680568 0
vt 0.241598 0.70746 0
vt 0.099315 0.697347 0
vt 0.077177 0.662632 0
vt 0.099357 0.590244 0
vt 0.148562 0.532901 0
vt 0.188636 0.534741 0
vt 0.251423 0.656422 0
vt 0.252436 0.680954 0
vt 0.241988 0.707218 0
vt 0.250964 0.656763 0
vt 0.798545 0.4079 0
vt 0.098699 0.698478 0
vt 0.189297 0.533641 0
vt 0.679406 0.47695 0
vt 0.078333 0.66327 0
vt 0.149658 0.533641 0
vt 0.681819 0.516514 0
vt 0.097982 0.589391 0
vt 0.465973 0.283176 0
vt 0.465788 0.211015 0
vt 0.502737 0.194794 0
vt 0.634246 0.259309 0
vt 0.634526 0.283453 0
vt 0.634165 0.307607 0
vt 0.502443 0.371683 0
vt 0.46555 0.355336 0
vt 0.635179 0.258026 0
vt 0.63631 0.283465 0
vt 0.747819 0.92573 0
vt 0.635093 0.308894 0
vt 0.503267 0.19375 0
vt 0.615905 0.99 0
vt 0.502969 0.37273 0
vt 0.464674 0.210758 0
vt 0.577316 0.972987 0
vt 0.464435 0.355588 0
vt 0.464435 0.283174 0

# 122 vertex normals
vn -0.0149968 0.533256 -0.845821
vn 0.0149716 0.533643 -0.845577
vn -0.000440883 0.519876 -0.854242
vn -0.853661 0.520829 0.000550038
vn -0.845137 0.534336 0.0151004
vn -0.845095 0.534418 -0.0145581
vn 0.845095 0.534418 0.0145581
vn 0.853661 0.520829 -0.000550038
vn 0.845137 0.534336 -0.0151004
vn 0.0116054 -0.999642 0.024128
vn 0.0554167 -0.996323 0.065335
vn -0.000111964 -0.992292 0.12392
vn 0.00633569 -0.999914 0.0114742
vn 0.0653983 -0.99551 -0.068425
vn 0.0231514 -0.999464 -0.0231367
vn -0.00633569 -0.999914 -0.0114742
vn 0.000111964 -0.992292 -0.12392
vn -0.0653983 -0.99551 0.068425
vn -0.0231514 -0.999464 0.0231367
vn 0.127689 -0.991814 -1.44471e-05
vn 0.0110098 -0.999919 0.00634475
vn -0.127689 -0.991814 1.44471e-05
vn -0.0110098 -0.999919 -0.00634475
vn -0.642145 -0.766581 -0.0016926
vn -0.67991 -0.0178277 -0.733079
vn -0.659259 0.132484 0.740153
vn 0.659259 0.132484 -0.740153
vn 0.642145 -0.766581 0.0016926
vn -0.000126715 -0.778434 -0.627726
vn 0.000126715 -0.778434 0.627726
vn 0.147912 0.528963 -0.835655
vn -0.000278824 0.705687 -0.708524
vn 0.149208 0.530725 0.834306
vn 0.000278824 0.705687 0.708524
vn -0.149208 0.530725 -0.834306
vn -8.84416e-06 0.999877 -0.0156812
vn 8.84416e-06 0.999877 0.0156812
vn 0.0149968 0.533256 0.845821
vn 0.00849419 0.42593 -0.904716
vn 0.000440883 0.519876 0.854242
vn -0.00849419 0.42593 0.904716
vn -0.910823 0.412727 0.0076097
vn -0.833012 0.52871 0.162965
vn -0.835759 0.530873 -0.140292
vn 0.835759 0.530873 0.140292
vn 0.910823 0.412727 -0.0076097
vn -0.706637 0.707576 0.000115716
vn -0.0166842 0.999861 -0.000602718
vn 0.0166842 0.999861 0.000602718
vn 0.706637 0.707576 -0.000115716
vn 0.67991 -0.0178277 0.733079
vn 0 1 0
vn -0.147912 0.528963 0.835655
vn 0.833012 0.52871 -0.162965
vn -0.0149716 0.533643 0.845577
vn -0.0554167 -0.996323 -0.065335
vn -0.0116054 -0.999642 -0.024128
vn 0 -1 0
vn 0.305841 -0.745944 0.591632
vn 0.0215864 0.501913 0.864648
vn -0.00616276 0.463538 0.886056
vn -0.000844956 -0.790099 0.612979
vn 0.926713 0.364349 0.0919446
vn 0.0193833 0.537047 0.84333
vn 0.760197 0.648695 -0.0359823
vn 0.0549792 0.561704 0.82551
vn 0.00329615 0.90388 -0.427773
vn -0.00600406 0.551601 0.834086
vn -0.0164401 0.540418 0.841236
vn -0.0744144 0.548231 0.83301
vn -0.0213348 0.492772 0.869897
vn 0.700147 -0.611055 0.369332
vn 0.752155 -0.658986 0.000146992
vn 0.852833 0.522184 -0.000373989
vn 0.848941 0.528471 0.00406153
vn 0.0228701 0.344945 0.938344
vn 0.841956 0.539131 0.0211957
vn -0.240344 0.523709 0.81729
vn 0.830788 0.555677 0.031844
vn 0.833834 0.551983 -0.00594881
vn -0.287947 0.957646 -0.0005085
vn 0.857311 0.514754 -0.00672316
vn 0.829502 0.554155 -0.0695591
vn 0.823717 0.564418 -0.0540541
vn -0.833834 0.551983 0.00594881
vn -0.830788 0.555677 -0.031844
vn -0.841956 0.539131 -0.0211957
vn -0.848941 0.528471 -0.00406153
vn -0.852833 0.522184 0.000373989
vn -0.857311 0.514754 0.00672316
vn -0.829502 0.554155 0.0695591
vn -0.823717 0.564418 0.0540541
vn 0.287947 0.957646 0.0005085
vn 0.240344 0.523709 -0.81729
vn 0.223165 0.571781 0.789471
vn -0.223165 0.571781 -0.789471
vn -0.0228701 0.344945 -0.938344
vn -0.0244131 0.342931 0.939043
vn 0.0244131 0.342931 -0.939043
vn -0.700147 -0.611055 -0.369332
vn -0.700644 -0.611612 0.367462
vn 0.700644 -0.611612 -0.367462
vn -0.752155 -0.658986 -0.000146992
vn 0.00616276 0.463538 -0.886056
vn -0.0215864 0.501913 -0.864648
vn -0.0193833 0.537047 -0.84333
vn -0.0549792 0.561704 -0.82551
vn 0.00600406 0.551601 -0.834086
vn 0.0164401 0.540418 -0.841236
vn 0.0744144 0.548231 -0.83301
vn 0.0213348 0.492772 -0.869897
vn -0.760197 0.648695 0.0359823
vn -0.00329615 0.90388 0.427773
vn -0.796176 0.596397 -0.102051
vn 0.796176 0.596397 0.102051
vn -0.926713 0.364349 -0.0919446
vn -0.921811 0.372762 0.106367
vn 0.921811 0.372762 -0.106367
vn -0.305841 -0.745944 -0.591632
vn -0.376756 -0.671611 0.63796
vn 0.376756 -0.671611 -0.63796
vn 0.000844956 -0.790099 -0.612979

# Mesh 'g Holocron_Holocron' with 108 faces
g g Holocron_Holocron
usemtl Default
f  1/1/1 2/2/2 3/3/3
f  4/4/4 5/5/5 6/6/6
f  7/7/7 8/8/8 9/9/9
f  10/10/10 11/11/11 12/12/12
f  12/12/12 13/13/13 10/10/10
f  14/14/14 15/15/15 16/16/16
f  16/16/16 17/17/17 14/14/14
f  18/18/18 19/19/19 13/13/13
f  13/13/13 12/12/12 18/18/18
f  20/20/20 11/21/11 10/22/10
f  10/22/10 21/23/21 20/20/20
f  14/24/14 20/20/20 21/23/21
f  21/23/21 15/25/15 14/24/14
f  18/26/18 22/27/22 23/28/23
f  23/28/23 19/29/19 18/26/18
f  24/30/24 25/31/25 11/32/11
f  11/32/11 20/33/20 24/30/24
f  26/34/26 24/30/24 20/33/20
f  20/33/20 14/35/14 26/34/26
f  27/36/27 28/37/28 22/38/22
f  22/38/22 18/39/18 27/36/27
f  11/40/11 25/41/25 29/42/29
f  29/42/29 12/43/12 11/40/11
f  26/44/26 14/45/14 17/46/17
f  17/46/17 30/47/30 26/44/26
f  27/48/27 18/49/18 12/43/12
f  12/43/12 29/42/29 27/48/27
f  25/50/25 31/51/31 32/52/32
f  32/52/32 29/53/29 25/50/25
f  33/54/33 26/55/26 30/56/30
f  30/56/30 34/57/34 33/54/33
f  35/58/35 27/59/27 29/53/29
f  29/53/29 32/52/32 35/58/35
f  32/60/32 31/61/31 2/62/2
f  2/62/2 36/63/36 32/60/32
f  33/64/33 34/65/34 37/66/37
f  37/66/37 38/67/38 33/64/33
f  35/68/35 32/60/32 36/63/36
f  36/63/36 1/69/1 35/68/35
f  39/70/39 3/71/3 2/72/2
f  2/72/2 31/73/31 39/70/39
f  40/74/40 41/75/41 33/76/33
f  33/76/33 38/77/38 40/74/40
f  3/78/3 39/79/39 35/80/35
f  35/80/35 1/81/1 3/78/3
f  42/82/42 43/83/43 5/84/5
f  5/84/5 4/85/4 42/82/42
f  44/86/44 42/87/42 4/88/4
f  4/88/4 6/89/6 44/86/44
f  45/90/45 46/91/46 8/92/8
f  8/92/8 7/93/7 45/90/45
f  5/94/5 43/95/43 47/96/47
f  47/96/47 48/97/48 5/94/5
f  44/98/44 6/99/6 48/97/48
f  48/97/48 47/96/47 44/98/44
f  45/100/45 7/101/7 49/102/49
f  49/102/49 50/103/50 45/100/45
f  43/104/43 25/105/25 24/106/24
f  24/106/24 47/107/47 43/104/43
f  51/108/51 52/109/52 41/110/41
f  41/110/41 53/111/53 51/108/51
f  26/112/26 44/113/44 47/107/47
f  47/107/47 24/106/24 26/112/26
f  27/114/27 45/115/45 50/116/50
f  50/116/50 28/117/28 27/114/27
f  42/118/42 52/119/52 25/105/25
f  25/105/25 43/104/43 42/118/42
f  46/120/46 52/121/52 51/122/51
f  51/122/51 54/123/54 46/120/46
f  52/119/52 42/118/42 44/113/44
f  44/113/44 26/112/26 52/119/52
f  52/121/52 46/120/46 45/115/45
f  45/115/45 27/114/27 52/121/52
f  54/123/54 51/122/51 28/117/28
f  28/117/28 50/116/50 54/123/54
f  25/50/25 52/124/52 39/125/39
f  39/125/39 31/51/31 25/50/25
f  52/109/52 26/55/26 33/54/33
f  33/54/33 41/110/41 52/109/52
f  9/126/9 54/127/54 50/103/50
f  50/103/50 49/102/49 9/126/9
f  52/124/52 27/59/27 35/58/35
f  35/58/35 39/125/39 52/124/52
f  46/128/46 54/129/54 9/130/9
f  9/130/9 8/131/8 46/128/46
f  41/132/41 40/133/40 55/134/55
f  55/134/55 53/135/53 41/132/41
f  34/65/34 53/136/53 55/137/55
f  55/137/55 37/66/37 34/65/34
f  51/108/51 53/111/53 34/57/34
f  34/57/34 30/56/30 51/108/51
f  56/138/56 51/139/51 30/47/30
f  30/47/30 17/46/17 56/138/56
f  28/37/28 51/140/51 56/141/56
f  56/141/56 22/38/22 28/37/28
f  22/27/22 56/142/56 57/143/57
f  57/143/57 23/28/23 22/27/22
f  57/144/57 56/145/56 17/17/17
f  17/17/17 16/16/16 57/144/57
f  40/146/40 38/147/38 55/148/55
f  57/149/57 16/150/16 58/151/58
f  58/151/58 23/152/23 57/149/57
f  13/153/13 19/154/19 23/155/23
f  23/155/23 58/156/58 13/153/13
f  16/157/16 15/158/15 21/159/21
f  21/159/21 58/160/58 16/157/16
f  10/161/10 13/162/13 58/163/58
f  58/163/58 21/164/21 10/161/10

# Mesh 'g Detail_Detail' with 88 faces
g g Detail_Detail
usemtl Default
f  59/165/59 60/166/60 61/167/61
f  61/167/61 62/168/62 59/165/59
f  63/169/63 64/170/64 60/166/60
f  60/166/60 59/165/59 63/169/63
f  65/171/65 66/172/66 64/170/64
f  64/170/64 63/169/63 65/171/65
f  66/172/66 65/171/65 67/173/67
f  67/173/67 68/174/68 66/172/66
f  61/167/61 60/166/60 64/170/64
f  61/167/61 64/170/64 66/172/66
f  61/167/61 66/172/66 68/174/68
f  61/167/61 68/174/68 69/175/69
f  61/167/61 69/175/69 70/176/70
f  61/167/61 70/176/70 71/177/71
f  72/178/72 73/179/73 74/180/74
f  74/180/74 75/181/75 72/178/72
f  76/182/76 72/178/72 75/181/75
f  75/181/75 77/183/77 76/182/76
f  78/184/78 76/182/76 77/183/77
f  77/183/77 79/185/79 78/184/78
f  79/185/79 80/186/80 81/187/81
f  81/187/81 78/184/78 79/185/79
f  80/186/80 79/185/79 77/183/77
f  80/186/80 77/183/77 75/181/75
f  80/186/80 75/181/75 74/180/74
f  80/186/80 74/180/74 82/188/82
f  80/186/80 82/188/82 83/189/83
f  83/189/83 84/190/84 80/186/80
f  85/191/85 86/192/86 87/193/87
f  85/191/85 87/193/87 88/194/88
f  85/191/85 88/194/88 89/195/89
f  85/191/85 89/195/89 90/196/90
f  85/191/85 90/196/90 91/197/91
f  91/197/91 92/198/92 85/191/85
f  86/192/86 85/191/85 93/199/93
f  93/199/93 94/200/94 86/192/86
f  85/191/85 92/198/92 95/201/95
f  95/201/95 93/199/93 85/191/85
f  80/186/80 84/190/84 96/202/96
f  96/202/96 81/187/81 80/186/80
f  94/200/94 97/203/97 87/193/87
f  87/193/87 86/192/86 94/200/94
f  98/204/98 95/201/95 92/198/92
f  92/198/92 91/197/91 98/204/98
f  99/205/99 96/202/96 84/190/84
f  84/190/84 83/189/83 99/205/99
f  97/203/97 100/206/100 88/194/88
f  88/194/88 87/193/87 97/203/97
f  101/207/101 98/204/98 91/197/91
f  91/197/91 90/196/90 101/207/101
f  102/208/102 99/205/99 83/189/83
f  83/189/83 82/188/82 102/208/102
f  100/206/100 103/209/103 89/195/89
f  89/195/89 88/194/88 100/206/100
f  103/209/103 101/207/101 90/196/90
f  90/196/90 89/195/89 103/209/103
f  73/179/73 102/208/102 82/188/82
f  82/188/82 74/180/74 73/179/73
f  104/210/104 105/211/105 106/212/106
f  104/210/104 106/212/106 107/213/107
f  104/210/104 107/213/107 108/214/108
f  104/210/104 108/214/108 109/215/109
f  104/210/104 109/215/109 110/216/110
f  104/210/104 110/216/110 111/217/111
f  107/213/107 112/218/112 113/219/113
f  113/219/113 108/214/108 107/213/107
f  114/220/114 69/175/69 68/174/68
f  68/174/68 67/173/67 114/220/114
f  115/221/115 109/215/109 108/214/108
f  108/214/108 113/219/113 115/221/115
f  112/218/112 107/213/107 106/212/106
f  106/212/106 116/222/116 112/218/112
f  69/175/69 114/220/114 117/223/117
f  117/223/117 70/176/70 69/175/69
f  109/215/109 115/221/115 118/224/118
f  118/224/118 110/216/110 109/215/109
f  116/222/116 106/212/106 105/211/105
f  105/211/105 119/225/119 116/222/116
f  70/176/70 117/223/117 120/226/120
f  120/226/120 71/177/71 70/176/70
f  110/216/110 118/224/118 121/227/121
f  121/227/121 111/217/111 110/216/110
f  119/225/119 105/211/105 104/210/104
f  104/210/104 122/228/122 119/225/119
f  71/177/71 120/226/120 62/168/62
f  62/168/62 61/167/61 71/177/71
f  111/217/111 121/227/121 122/228/122
f  122/228/122 104/210/104 111/217/111

